<svg data-name="1" xmlns="http://www.w3.org/2000/svg" viewBox="0 0 512 512">
  <path d="M483.25 242.11v255.02h-42.09l-147.29-63.54-175.91 63.54h-89.2V242.11c0-20.62 2.74-40.62 7.91-59.63.22-.82.44-1.63.67-2.42 15.75-55.6 52.14-102.53 100.35-131.97 8.78-5.37 17.95-10.16 27.44-14.29h.02c27.84-12.16 58.52-18.91 90.83-18.91 43.44 0 84.01 12.16 118.5 33.3.72.42 1.43.87 2.13 1.31a226.697 226.697 0 0140.08 31.94c35.85 35.85 59.81 83.66 65.34 136.92.1 1.06.2 2.15.27 3.21.62 6.77.94 13.62.94 20.55z" fill="#977bff"/>
  <path d="M482.04 218.35c-10.33-6.72-22.15-11.15-34.39-12.58-3.12-.37-6.33-.57-9.44-.74-7.81-.47-15.9-.96-22.89-4.3-5.61-2.67-10.78-7.32-15.35-13.8-7.69-10.85-11.52-23.51-10.75-35.68.35-5.88 1.83-11.6 4.25-16.76 9.59 2.32 21.9-1.73 25.42-11.92.59-1.73.74-3.14.42-4.43-.44-1.9-1.66-3.26-3.54-3.93-3.56-1.26-8.5.35-11.35 2.5-5.07 3.86-9.25 8.95-12.26 14.76-10.73-3.76-16.91-14.27-19.66-20.25-7.29-15.95-7.74-35.21-1.19-51.47 1.43-3.56 3.21-7 5.32-10.26-.69-.44-1.41-.89-2.13-1.31a62.305 62.305 0 00-5.51 10.63c-6.8 16.91-6.35 36.89 1.24 53.45 4.94 10.78 12.31 18.37 20.82 21.48-2.47 5.36-3.96 11.27-4.35 17.36-.77 12.73 3.21 25.96 11.22 37.28 4.85 6.82 10.33 11.74 16.32 14.59 7.44 3.56 15.77 4.05 23.83 4.55 3.07.17 6.26.37 9.3.74 12.51 1.46 24.58 6.16 34.96 13.3-.07-1.06-.17-2.15-.27-3.21zm-76.1-99.64c2.62-2 6.65-2.97 8.97-2.13 1.06.37 1.68 1.06 1.93 2.13.2.82.1 1.78-.35 3.04-2.99 8.68-13.47 12.21-21.9 10.41 2.84-5.29 6.7-9.91 11.35-13.45zM86.91 291.41c-2.08-6.58-4.55-11.74-7.61-15.8.05-.12.1-.25.15-.37 3.56-10.28 1.83-21.41-.1-29.96-2.79-12.44-7.1-24.55-12.78-35.97-4.03-8.01-9.84-18.07-19.31-24.6a33.656 33.656 0 00-9.91-4.65c-.22.79-.44 1.61-.67 2.42 3.39.96 6.53 2.5 9.15 4.3 7.02 4.82 12.73 12.11 18.49 23.66 5.61 11.22 9.84 23.14 12.58 35.38 1.78 7.94 3.41 18.15.52 27.52a28.43 28.43 0 00-3.19-3.02c-6.16-5.04-16.37-7.59-23.98-2.69-3.91 2.5-6.45 7.19-6.63 12.21-.15 4.33 1.53 8.11 4.6 10.41 2.15 1.61 4.94 2.52 8.06 2.69 9.74.45 17.92-6.58 21.88-14.64 2.5 3.66 4.57 8.21 6.38 13.87 4.25 13.47 5.59 28.01 3.88 42.05-1.33 10.78-4.3 19.04-9.1 25.27-7.64 9.94-19.36 14.49-31.74 19.31-6.33 2.47-12.86 4.99-18.81 8.33v2.92c6.13-3.63 13.03-6.3 19.73-8.9 12.16-4.75 24.75-9.62 32.83-20.12 5.07-6.6 8.18-15.25 9.57-26.5 1.78-14.39.4-29.3-3.98-43.12zm-30.49-.99c-1.85-.07-4.5-.54-6.72-2.2-2.4-1.78-3.71-4.8-3.58-8.28.15-4.15 2.3-8.16 5.49-10.21 2.42-1.56 5.19-2.23 8.01-2.23 4.75 0 9.59 1.95 13.03 4.75 1.36 1.11 2.62 2.37 3.78 3.78-3.31 7.74-10.93 14.83-20 14.39zm426.83 101.04v2.92a72.165 72.165 0 00-7.71-4.05c-9.2-4.15-17.63-5.71-25.12-4.67-8.41 1.16-16.24 6.28-21.53 14.04-5.29 7.76-7.19 16.94-5.19 25.17 2.99 12.51 13 21.88 22.67 30.95l3.02 2.84c9.35 8.85 21.58 22.47 20.05 38.45v.02h-2.52c0-.07.02-.17.02-.25 1.43-14.91-10.31-27.91-19.26-36.42l-3.02-2.82c-9.94-9.32-20.22-18.96-23.41-32.19-2.15-8.93-.12-18.81 5.56-27.17 5.69-8.33 14.17-13.85 23.26-15.11 7.96-1.11 16.86.52 26.48 4.85 2.32 1.04 4.57 2.2 6.7 3.44zM118.58 497.13h-2.55c-1.38-14.71-3.02-29.74-6.5-44.18-2.08-8.53-5.36-19.38-12.51-27.84-4.65-5.49-12.96-11.08-21.11-8.75-8.46 2.45-12.41 11.99-13.23 19.41-1.41 12.96 3.29 25.74 7.81 38.12 1.09 2.94 2.15 5.86 3.16 8.78 1.73 5.07 2.97 9.89 3.73 14.46h-2.55c-.84-4.82-2.15-9.49-3.56-13.65-.99-2.89-2.08-5.81-3.14-8.73-4.65-12.66-9.44-25.74-7.94-39.26.89-8.18 5.36-18.77 15.01-21.53 9.3-2.67 18.59 3.46 23.73 9.54 7.47 8.83 10.88 20.08 13 28.85 3.58 14.69 5.22 29.89 6.63 44.77zm72.09-351.82a70.92 70.92 0 01.06 23.75c-.73 4.37-2.11 9.03-5.71 11.62-5.52 3.97-14.2 1.58-19.09 6.31-3.97 3.84-3.31 10.33-1.88 15.66 1.43 5.34 3.32 11.19.94 16.18-1.73 3.64-5.46 5.98-9.31 7.15-3.86 1.17-7.93 1.36-11.93 1.85-7.8.96-15.66 3.23-21.83 8.09-7.87 6.19-12.22 16.09-13.3 26.05-1.06 9.74.79 19.78 5.26 28.5 8.41-1.73 17.15-2.2 25.56-3.93 88.55-18.2 177.57-36.46 267.9-40.25 2.78-9.44 1.2-20.57-3.48-29.22-4.69-8.65-12.89-15.32-22.32-18.15-3.17-.95-6.83-1.75-8.48-4.62-1.23-2.14-.92-4.79-.69-7.25.6-6.51.27-13.29-2.48-19.21-2.75-5.93-8.3-10.85-14.8-11.48-4.16-.4-8.74.84-12.29-1.36-3.25-2.01-4.35-6.13-5.24-9.84-3.32-13.8-7.57-27.6-15.3-39.51-14.74-22.71-42.3-36.45-69.31-34.56-9.69.68-19.35 3.27-27.62 8.36-6.92 4.25-12.73 10.15-17.49 16.74-9.98 13.81-20.07 32.34-17.16 49.13z" fill="#302945"/>
  <path d="M406.66 283.13l-1.34 18.37v.02l-1.38 18.71-.99 13.53v.02l-9.4 128.73v.02l-1.95 26.59H175.07c-12.24-46.87-30.36-121.98-32.81-164.42-.02-.29-.02-.6-.05-.89-.02-.46-.05-.92-.07-1.35-.05-1.13-.07-2.19-.1-3.26v-.02c-.05-2.17-.05-4.22 0-6.15.15-6.34.89-11.4 2.32-14.9.3-.68.59-1.33.94-1.88.12-.19.22-.36.35-.53 4.01-5.79 10.66-11.53 18.67-16.95h.02c1.76-1.21 3.56-2.39 5.44-3.57 8.01-4.97 16.94-9.64 25.71-13.79 1.63-.77 3.26-1.54 4.87-2.29h.02c13.97-6.37 26.92-11.31 34.37-14.03l-2.37-49.02v-.02l-.4-7.91s0-.02.02-.02l9.72-2.12 50.73-10.99 3.09-.68.22 3.62 2.1 34.55.96 16.15.99 16.08c12.07 1.3 23.14 3.3 33.2 5.71h.02c.17.05.35.1.54.14 48.11 11.62 73.06 32.53 73.06 32.53z" fill="#ff9191"/>
  <path d="M298.83 230.04c-.18.28-.35.53-.56.81-3.16 4.35-7.29 8.22-12.45 9.79-5.49 1.67-11.51.46-16.73-1.92-6.38-2.88-11.87-7.44-16.32-12.78-6.55-7.82-14.17-19.71-12.75-30.39.4-3.19.91-6.3 1.7-9.24l50.74-11.29c1.16.94 2.28 1.95 3.31 3.01l3.06 52z" fill="#302945" opacity=".47"/>
  <path d="M327.2 122.44c0-1.76-.09-3.5-.23-5.22.02-1.33.02-2.1.02-2.1l-.23-.03c-3.64-31.14-30.1-55.32-62.22-55.32-34.61 0-62.67 28.06-62.67 62.67 0 18.7 8.2 35.48 21.19 46.96 6.64 53.82 59.25 53.83 59.25 53.83s20.03-10.01 32.3-25.2c8.47-10.47 11.15-45.95 11.99-66.95.39-2.82.61-5.7.61-8.64z" fill="#ff9191"/>
  <path d="M255.52 163.04c-2.05 0-4.19-.89-6-2.53-1.76-1.59-2.95-3.56-4.1-5.47a1.268 1.268 0 012.17-1.31c1.06 1.75 2.16 3.56 3.64 4.9 1.53 1.38 3.31 2.05 4.89 1.83 2.07-.28 3.66-2.06 4.41-3.09.7-.95 1.28-1.99 1.89-3.08.46-.83.93-1.66 1.45-2.46.38-.59 1.17-.75 1.75-.37.59.38.75 1.16.37 1.75-.49.75-.92 1.53-1.36 2.32-.62 1.12-1.27 2.27-2.06 3.35-1.22 1.65-3.26 3.71-6.11 4.1-.31.04-.62.06-.93.06zm49.76-5.23c-.77 0-1.57-.15-2.33-.45-1.34-.53-2.56-1.49-3.61-2.84-.35-.45-.66-.92-.97-1.4-.3-.45-.6-.91-.93-1.33a1.27 1.27 0 01.2-1.78c.54-.44 1.34-.35 1.78.2.38.48.73 1 1.07 1.51.28.42.56.84.86 1.24.75.98 1.63 1.68 2.53 2.04.97.38 2.01.36 2.79-.05.48-.26.95-.69 1.45-1.37 1.22-1.62 1.99-3.63 2.74-5.57.25-.65.99-.98 1.64-.73.65.25.98.98.73 1.64-.81 2.1-1.65 4.28-3.08 6.18-.74.99-1.47 1.65-2.29 2.09-.77.41-1.66.61-2.58.61zm-14.08 12.48l-4.97-26.33c-.12-.69-.79-1.14-1.48-1.01-.67.15-1.14.79-.99 1.48l4.92 26.18-2.97 1.61c-.62.32-.84 1.11-.49 1.71.22.42.67.67 1.11.67.2 0 .4-.05.59-.15l3.14-1.71c.25-.12.67-.37.94-.84.37-.64.25-1.29.2-1.61zm-8.04 16.43c-.38 0-.75-.03-1.13-.08-2.75-.42-5.17-2.37-6.15-4.98-.25-.65.08-1.38.74-1.63.65-.25 1.38.08 1.63.74.65 1.74 2.32 3.09 4.16 3.37 1.82.28 3.83-.52 4.97-1.99a1.25 1.25 0 011.77-.22c.55.43.65 1.22.22 1.77-1.48 1.9-3.83 3.02-6.22 3.02zm-37.65-46.04c-.23 0-.45-.06-.66-.19-.6-.36-.78-1.14-.42-1.74 2.15-3.51 6.03-5.77 10.14-5.91.7-.07 1.28.52 1.31 1.22.02.7-.52 1.28-1.22 1.31-3.22.11-6.39 1.95-8.07 4.7-.24.39-.65.6-1.08.6zm62.13-6.69c-.27 0-.54-.08-.77-.26-2.34-1.79-5.81-2.11-8.44-.78-.62.32-1.38.07-1.7-.56-.32-.62-.07-1.38.56-1.7 3.52-1.78 7.99-1.37 11.12 1.02.56.42.66 1.22.24 1.77-.25.33-.63.5-1.01.5zm-115.96 23.52c2.56-4.84 7.53-8.33 12.96-9.08 1.33-.18 2.7-.21 4.01.1 1.77.42 3.36 1.45 4.71 2.66 3.62 3.25 5.76 7.79 8.29 11.95 2.53 4.16 5.85 8.27 10.53 9.62-2.95-6.02-5.31-11.91-5.3-18.61 0-2.38.42-4.82 1.63-6.87 1.89-3.19 5.43-5.02 7.78-7.88 3.25-3.96 3.82-9.92 1.38-14.43-1.69-3.13-4.65-5.56-5.69-8.95-.59-1.93-.5-4.02-.09-6 .5-2.35 1.51-4.7 3.39-6.21 2.32-1.86 5.49-2.13 8.44-2.52 4.12-.55 8.49-1.67 11.16-4.85 3.56-4.23 2.9-10.53 1.42-15.86a72.351 72.351 0 00-14.2-27.01c-15.89 5.74-31.81 13.17-43 25.83-11.19 12.66-17.64 30.27-14.02 46.78 1.73 7.88 5.63 15.29 6.23 23.34.2 2.7.17 5.29.37 7.99z" fill="#302945"/>
  <path d="M344.61 119.47c-3.17 3.73-8.41 5.37-13.27 4.75-4.86-.63-9.06-3.19-12.42-6.75-2.87 3.84-6.58 8.08-11.36 7.76-2.82-.19-5.28-2.01-7.18-4.1a23.749 23.749 0 01-5.62-10.87c-1.09-4.95-.9-10.84-4.82-14.04-2.53-2.07-6.08-2.31-9.33-2.01-3.25.3-6.51 1.05-9.75.63-8.21-1.08-13.57-9.17-16.36-16.97-.51-1.41-2.44-2.21-3.11-3.55-3.36-6.68-6.71-13.36-10.07-20.04 13.12-6.64 28.21-9.49 42.53-6.12 14.31 3.38 27.33 12.52 34.7 25.24 3.53 6.09 5.76 12.87 7.27 19.74 1.17 5.35 1.96 10.88 4.41 15.78 2.45 4.9 8.91 10.31 14.38 10.55z" fill="#302945"/>
  <path d="M215.06 150.25c-3.5-2.07-7.5-3.59-11.41-2.83-5.01.97-8.99 5.7-10.36 11.08-1.37 5.37-.42 11.22 1.7 16.29 3.8 9.07 11.41 16.11 20.2 18.68 3 .88 6.18 1.25 9.22.54 3.04-.71 5.93-2.59 7.57-5.49 2.98-5.28 1.74-15.39-.75-20.89-3.29-7.26-9.77-13.57-16.18-17.36z" fill="#ff9191"/>
  <g fill="#302945">
    <path d="M224.33 183.63c-.56 0-1.07-.37-1.22-.94-1.8-6.7-4.21-11.43-7.58-14.86-4.12-4.21-9.88-6.09-14.67-4.81-.67.19-1.37-.22-1.55-.89-.18-.67.22-1.37.89-1.55 5.65-1.52 12.38.63 17.13 5.48 3.68 3.76 6.3 8.84 8.22 15.98.18.67-.22 1.37-.89 1.55-.11.03-.22.04-.33.04z"/>
    <path d="M206.28 176.14c-.24 0-.48-.07-.7-.21-.58-.38-.74-1.17-.36-1.75 2.4-3.65 7.09-5.69 11.41-4.96 1.93.33 3.44 1.14 4.38 2.36.43.55.32 1.35-.23 1.77-.55.43-1.35.32-1.77-.23-.69-.89-1.9-1.26-2.8-1.41-3.36-.56-7 1.02-8.87 3.86-.24.37-.65.57-1.06.57z"/>
  </g>
  <path d="M441.17 497.13h-59.35L341 487.03l-36.61 10.1H185.72l-42.08-14.73c-10.24-62.9-26.39-155.12-11.39-178.36.15-.25.32-.47.47-.69 5.34-7.37 11.6-13.72 18.02-19.14 1.19-1.01 2.37-1.98 3.56-2.92 19.7-15.45 39.8-22.33 39.8-22.33s.44 1.73 1.38 4.67c.67 2.13 1.61 4.85 2.82 8.04v.02c.35.87.69 1.76 1.06 2.67 6.55 16.37 19.7 41.34 41.56 52.44h.02c6.97 3.54 14.78 5.66 23.56 5.66 6.55 0 12.56-1.34 18.07-3.66 33.1-13.97 47.82-63.84 51-76.27.02-.07.05-.15.05-.22.44-1.66.64-2.6.64-2.6s2.32.64 6.21 1.8c16.27 4.92 59.71 19.33 70.68 35.92 2.4 3.63 4.85 8.26 7.22 13.77 2.05 4.7 4.08 10.04 6.01 15.92.91 2.74 1.8 5.61 2.67 8.6 7.37 25.22 13.05 58.17 13.82 92.79.25 10.58.37 21.76.42 32.96.07 15.7-.02 31.45-.15 45.64z" fill="#f7ede5"/>
  <path d="M370.25 361.42s18.31 55.2 19.57 79.22c1.26 24.03-.63 56.49-.63 56.49" fill="none" stroke="#302945" stroke-miterlimit="10" stroke-width="2.51"/>
  <path d="M234.63 86.05c-2.72 13.97-12.02 26.08-23.61 34.34a73.45 73.45 0 01-9.07 5.56 96.171 96.171 0 01-10.95 4.94c-1.38.54-2.77 1.04-4.18 1.51-4.9 1.68-9.91 3.07-14.98 4.23-12.86 2.99-26.43 4.9-37.31 12.36-6.26 4.25-11.64 11.94-8.88 18.99 2 5.12 7.71 7.89 13.15 8.63 5.46.72 11.03-.07 16.52.37 6.58.52 12.96 2.94 18.32 6.8 4.47 3.14 8.26 7.27 10.9 12.07 4.92 8.95 5.54 21.02-1.14 28.7-2.32 2.67-5.29 4.62-8.21 6.63-.59.4-1.19.82-1.78 1.24-5.61 4.05-10.68 7.07-14.69 12.11-.77.94-1.48 1.98-2.18 3.09.4-1.01.79-2.05 1.16-3.12 1.63-4.33 3.14-8.83 4.08-13.33.67-3.12 1.04-6.26 1.04-9.32-.02-4.18-.82-8.26-2.74-12.09-4.23-8.48-13.08-13.6-21.9-17.11-8.8-3.49-18.17-5.96-25.98-11.32-11.17-7.69-18.02-21.31-17.53-34.88.52-13.57 8.36-26.65 20.08-33.5 7.05-4.1 15.11-6.01 22.55-9.3 7.44-3.31 14.71-8.65 16.96-16.47 2.67-9.3-2.45-18.96-8.08-26.8-2.87-4.01-6.01-8.04-8.48-12.31 8.78-5.37 17.95-10.16 27.44-14.29h.02c2.77 1.61 6.08 2.45 9.27 3.02 15.95 2.79 33.67 1.46 46.7 11.08 3.76 2.77 6.8 6.35 9.07 10.38 1.68 2.94 2.97 6.13 3.83 9.44.59 2.3.99 4.65 1.19 7.02.32 3.78.12 7.61-.59 11.32z" fill="#fff" opacity=".33"/>
  <path fill="#f8bdff" d="M112.92 231.19h93.46L187 328.53h-48.24l-25.84-97.34z"/>
  <path d="M186.32 497.13h-67.89c-7-49.35-7.99-138.2-8.31-146.96-.44-11.2-5.81-33.38-7.12-40.69-1.29-7.32 1.63-23.59 1.63-23.59s-4.65-13.13 1.38-17.88l2.3-1.06 12.58-5.71 36.81-16.74.87-.4s.05.15.15.42c.52 1.66 2.1 8.06-2.74 12.51-5.41 4.99-25.79 14.44-27.05 15.03l38.67-12.02s3.88 4.72-1.29 10.33c-4.99 5.41-32.24 15.28-33.95 15.9l21.93-4.99 15.48-3.51 2.15-.49s.2 1.04.27 2.55c.2 2.84-.05 7.39-2.87 9.94-2.5 2.25-14.44 6.48-24.03 9.59-6.38 2.1-11.72 3.73-12.49 3.96l11.55-2.03 21.53-3.78s7.05 4.38-2.15 9.69c-7.49 4.33-16.69 7.69-21.71 9.37-1.01.35-1.85.62-2.47.82-.79.25-1.24.37-1.24.37l3.81 8.48.07.15 11.77.84 12.34.87s.02.15.1.45c.57 3.14 3.68 21.95-1.8 31.42-6.03 10.36-6.9 25-6.9 25l28.61 112.17z" fill="#ff9191"/>
  <path d="M161.37 337.55c-.47 0-.92-.26-1.14-.72-5.13-10.65-17.34-9.26-17.87-9.2-.55.06-1.08-.23-1.31-.74l-3.88-8.61c-.29-.64 0-1.39.63-1.67.64-.29 1.39 0 1.67.63l3.51 7.81c3.32-.13 14.48.22 19.51 10.68.3.63.04 1.39-.59 1.69-.18.09-.36.13-.55.13z" fill="#302945"/>
  <path d="M202.72 349.85l-.43-19.81s99.93-15.51 128.78 20.24c0 0 44.36-36.61 73.22-45.22s29.29-5.17 29.29-5.17l4.74 20.24-110.26 55.13-119.74 1.72-5.6-27.13z" fill="#fff"/>
  <path fill="#f8bdff" d="M198.41 343.39l1.3 128.35 133.95 21.11 107.68-41.35V311.52l-112.85 37.47-130.08-5.6z"/>
  <path d="M333.66 494.11c-.69 0-1.25-.55-1.27-1.24l-2.58-142.57c-.01-.7.54-1.27 1.24-1.29.77.07 1.28.54 1.29 1.24l2.58 142.57c.01.7-.54 1.27-1.24 1.29h-.02z" fill="#302945"/>
  <path d="M381.19 497.13h-76.87c-2.55-4.23-4.97-7.79-6.85-9.67-.12-.12-.27-.25-.42-.37 0-.02-.02-.02-.02-.02-5.79-4.87-35.8-19.26-30.43-33.35.15-.37.32-.74.52-1.14l16.89 8.97 1.29.67 2.5 1.34s-.64-.67-1.58-1.83c-.27-.27-.54-.59-.82-.94-4.87-5.91-14.96-19.78-7.94-26.31l47.49 35.03 1.51 1.11 2.65 1.95c-.1-.15-.74-1.04-1.71-2.5-.25-.35-.52-.72-.79-1.14-7.84-11.62-30.56-47.37-18.15-53.85l23.07 30.31 2.6 3.39 5.32 6.97c-.05-.27-.44-1.83-.96-4.2-2.4-11.35-7.59-41.71 5.51-44.85l21.31 73.97 1.95 6.77 13.94 9.67z" fill="#ff9191"/>
  <path d="M321.81 488.51c-.3 0-.6-.11-.84-.32-.11-.09-10.57-9.48-16.89-13.9s-37.23-20.43-37.54-20.59a1.269 1.269 0 011.17-2.25c1.28.66 31.38 16.24 37.83 20.76 6.45 4.52 16.7 13.7 17.13 14.09.52.47.56 1.27.1 1.79-.25.28-.6.42-.94.42z" fill="#302945"/>
  <path d="M330.64 474.73c-.26 0-.52-.08-.75-.25l-52.25-38.29c-5.93 7.98 8.35 23.76 8.5 23.93.47.52.44 1.32-.08 1.79s-1.31.44-1.79-.08c-.7-.77-17.08-18.88-7.72-28.24.44-.44 1.14-.5 1.64-.13l53.19 38.98c.56.41.69 1.2.27 1.77-.25.34-.63.52-1.02.52z" fill="#302945"/>
  <path d="M326.34 470.64c-.43 0-.84-.22-1.08-.61-.63-1.03-15.41-25.47-19.72-38.38-4.59-13.77 2.04-17.51 2.33-17.67.54-.29 1.22-.15 1.59.34l36.61 46.95c.43.55.33 1.35-.22 1.77-.55.43-1.34.33-1.77-.22l-35.81-45.92c-1.25 1.41-3.23 5.23-.33 13.94 4.21 12.64 19.33 37.61 19.48 37.86.36.6.17 1.38-.42 1.74-.21.12-.43.18-.66.18z" fill="#302945"/>
</svg>
