<svg data-name="2" xmlns="http://www.w3.org/2000/svg" viewBox="0 0 512 512">
  <path d="M481.67 242.43v255.02h-17.36l-99.1-30.62-100.37 30.62H27.18V242.43c0-1.71.02-3.39.05-5.09.02-1.09.07-2.15.1-3.24.64-17.68 3.29-34.86 7.76-51.3.22-.82.44-1.63.67-2.42 11.64-41.14 34.61-77.53 65.29-105.59 2-1.83 4.05-3.63 6.13-5.39.62-.57 1.26-1.11 1.9-1.61.32-.3.64-.57.96-.84 8.21-6.75 16.94-12.96 26.06-18.54.62-.37 1.21-.74 1.83-1.09 4.82-2.92 9.77-5.64 14.83-8.16 3.54-1.78 7.15-3.46 10.78-5.04h.02c27.84-12.16 58.52-18.91 90.83-18.91 30.43 0 59.44 5.96 85.94 16.81.79.32 1.56.64 2.32.96 10.51 4.43 20.59 9.62 30.24 15.53.72.42 1.43.87 2.13 1.31a226.697 226.697 0 0140.08 31.94c26.5 26.5 46.5 59.56 57.36 96.52.3.89.54 1.8.79 2.72 3.39 12.07 5.81 24.55 7.17 37.36 0 .1.02.22.02.32.07.79.15 1.58.2 2.37.02.27.05.57.07.84.62 6.77.94 13.62.94 20.55z" fill="#f8bdff"/>
  <path d="M128.2 150.53c5.29-11.74 6.01-25.93 4.3-37.58-2.23-15.08-7.37-27.59-15.25-37.21-2.45-2.99-5.22-5.69-8.16-7.96-.64.49-1.29 1.04-1.9 1.61 2.94 2.27 5.69 4.92 8.13 7.91 7.61 9.27 12.58 21.39 14.74 36 1.66 11.3.79 23.96-3.54 34.54-.35-.49-.69-.99-1.04-1.48-4.18-5.88-8.6-9.67-13.5-11.57-6.3-2.45-13.33-1.31-17.5 2.82-5.98 5.96-4.9 15.38-3.29 22.94.62 2.89 1.33 5.66 3.26 7.79 4.05 4.47 11.32 3.63 16.74.82 7.1-3.71 12.19-9.35 15.7-15.92 5.51 10.06 7.64 21.46 5.86 32.12-2.25 13.45-10.85 25.14-22.5 30.51-9.89 4.57-20.72 4.52-32.21 4.5-5.88-.02-11.99-.05-17.88.62-12.29 1.38-23.73 6.11-32.83 13.13-.02 1.09-.07 2.15-.1 3.24 8.97-7.44 20.62-12.49 33.2-13.92 5.76-.64 11.79-.62 17.6-.59 11.25.02 22.87.07 33.25-4.72 12.36-5.71 21.53-18.12 23.91-32.36 1.95-11.72-.59-24.3-7-35.21zm-18.17 16.42c-4.55 2.4-10.58 3.21-13.75-.27-1.51-1.68-2.13-4.1-2.67-6.65-1.48-6.95-2.52-15.58 2.6-20.67 2.45-2.42 5.71-3.39 8.93-3.39 2.1 0 4.15.42 5.93 1.11 4.45 1.73 8.5 5.24 12.41 10.71.64.89 1.26 1.83 1.83 2.77-3.36 6.95-8.36 12.78-15.28 16.39zm362.44 11.32c-1.8-.4-3.68-.72-5.64-.91-14.83-1.58-29.54 2.37-43.79 6.18-2.97.79-5.91 1.56-8.85 2.3-6.43 1.63-13.85 3.19-20.55 1.26-8.85-2.55-14.64-10.46-17.95-16.64-8.9-16.69-9.32-37.48-1.71-54.74 8.33 1.88 17.31.72 23.93-5.12 2.05-1.8 3.26-3.59 3.71-5.49.57-2.42-.15-4.87-2-6.9-2.35-2.57-5.98-3.91-9.25-3.41-4.62.69-8.83 3.86-12.91 9.69a60.554 60.554 0 00-4.87 8.36c-4.55-1.31-8.83-3.61-12.19-6.53-8.5-7.39-14.24-18.96-17.55-35.38-1.31-6.5-3.71-22.37-.2-37.98-.77-.32-1.53-.64-2.32-.96-2.77 11.5-2.82 24.97.1 39.41 3.44 16.99 9.42 29.03 18.34 36.76 3.54 3.07 8.01 5.49 12.78 6.92-7.74 17.85-7.24 39.29 1.95 56.52 3.54 6.6 9.77 15.08 19.46 17.85 7.29 2.1 15.08.47 21.81-1.24 2.97-.74 5.93-1.53 8.9-2.32 14.02-3.76 28.51-7.61 42.9-6.11 2.35.25 4.57.64 6.68 1.19-.25-.91-.49-1.83-.79-2.72zm-92.96-72.36c3.66-5.24 7.34-8.08 11.22-8.65 2.47-.35 5.29.69 7.07 2.62.74.82 1.93 2.52 1.43 4.67-.35 1.38-1.29 2.74-2.94 4.2-5.86 5.14-13.77 6.26-21.24 4.7 1.31-2.6 2.79-5.14 4.45-7.54zm94.94 220.38c-19.26-8.21-32.81-27.79-33.7-48.71-.89-20.94 10.95-41.59 29.45-51.42 1.78-.94 3.66-1.83 5.54-2.72 1.63-.79 3.31-1.58 4.92-2.4-.05-.79-.12-1.58-.2-2.37 0-.1-.02-.22-.02-.32-1.88 1.01-3.83 1.95-5.76 2.87-1.93.91-3.83 1.8-5.64 2.77-19.31 10.26-31.67 31.84-30.76 53.7.94 21.86 15.08 42.3 35.21 50.88 2.67 1.14 5.39 2.05 8.18 2.77v-2.6c-2.45-.62-4.87-1.46-7.22-2.45zM219.08 480.07c-10.58-.96-20.82 4.87-30.56 17.38h3.16c8.8-10.75 17.92-15.77 27.17-14.91 8.08.72 15.82 6.4 20.59 14.91h2.82c-5.09-9.84-13.92-16.54-23.19-17.38zm-90.11 5.59l-.84-3.24c-2.79-10.88-6.5-21.98-14.66-29.5-4.85-4.45-11.25-7.19-18.2-7.89.91-8.26-1.06-16.37-5.61-22.5-12.66-17.03-39.34-17.18-56.3-6.65a60.11 60.11 0 00-6.18 4.43v3.21c2.32-2.03 4.82-3.88 7.49-5.54 16.02-9.94 41.16-9.91 53.01 6.01 4.2 5.66 6.01 13.2 5.12 20.89-1.34-.02-2.72 0-4.08.12-9.39.79-17.8 5.14-23.04 11.94-3.66 4.72-5.14 11.67-.72 15.23 3.59 2.87 8.58 1.38 11.25.25 8.55-3.66 15.3-11.87 18-21.9.27-1.01.52-2.03.69-3.04 6.48.62 12.41 3.14 16.89 7.24 7.69 7.1 11.25 17.8 13.94 28.31l.84 3.24c.91 3.71 1.88 7.49 3.04 11.17h2.62c-1.29-3.86-2.3-7.84-3.26-11.79zm-37.14-35.78c-2.52 9.32-8.73 16.91-16.61 20.27-1.73.74-6.03 2.25-8.7.1-3.41-2.72-1.41-8.53 1.11-11.79 4.82-6.26 12.58-10.26 21.31-11 .94-.07 1.9-.1 2.84-.1h.62c-.15.84-.35 1.68-.57 2.52z" fill="#302945"/>
  <path d="M233.05 353.49s-65.78 68.17-75.95 86.11l-.28-.19-117.77-77.84-2.72-51.36 7.17 4.4.23-.47 3.44-6.6 21.99 13.04s4.82-22.55 43.39-43.04l120.49 75.95z" fill="#fff"/>
  <g fill="#302945">
    <path d="M156.82 440s-.08 0-.13-.01a.591.591 0 01-.46-.63c1.04-11.43 6.8-52.7 7.41-57.08L46.85 308.03a.591.591 0 01-.18-.81c.17-.27.54-.35.81-.18l117.11 74.45c.19.12.3.35.27.57-.06.41-5.16 36.81-6.98 52.85 3.96-10.22 14.73-36.02 26.71-48.16 15.03-15.23 46.85-33.01 47.17-33.18.28-.16.64-.06.8.23.16.28.06.64-.23.8-.32.18-31.99 17.87-46.91 32.98-14.88 15.08-27.92 51.66-28.05 52.02a.58.58 0 01-.55.39z"/>
    <path d="M233.05 353.44a.75.75 0 00-.42-.22.524.524 0 00-.37.1c-.02 0-.12.1-.32.22 0 .02-.02.02-.02.02-.3.2-.74.52-1.33.99h-.02c-.2.12-.42.3-.64.45-.59.42-1.26.91-2.03 1.48-1.31.96-2.87 2.13-4.6 3.41l-.02.02c-.74.54-1.48 1.11-2.27 1.71l-.02.02c-.91.67-1.85 1.38-2.82 2.13v.02c-4.75 3.66-10.16 7.99-15.25 12.41-4.18 3.63-8.11 7.32-11.32 10.78-3.02 3.24-6.43 7.59-9.89 12.39-.25.32-.47.64-.69.96-.22.3-.44.62-.67.94-7.96 11.22-16.02 24.4-20.47 31.87-.02.05-.05.05-.02.07l-.02.02s-.05.02-.05.05c-1.16 1.93-2.05 3.49-2.67 4.5-.02.07-.1.17-.15.25-.2.37-.35.64-.47.82a.42.42 0 01-.07.12c-.02.05-.02.07-.05.1v.02l-.02.02c-.05.07-.07.17-.07.25v.05c0 .1.02.17.07.25.02.1.1.17.2.25.1.05.2.07.32.07.17 0 .37-.07.47-.25 0 0 .02-.05.07-.12 0 0 .02-.02.02-.05.07-.07.15-.2.27-.35v-.02c.1-.15.22-.32.37-.54.67-.99 1.78-2.62 3.19-4.65l.17-.25c.57-.84 1.24-1.78 1.95-2.79v-.02c.64-.91 1.34-1.88 2.03-2.89.02-.02.02-.05.05-.07l.02-.02c4.15-5.91 9.17-12.83 13.23-17.9 1.63-2.03 3.36-4.1 5.17-6.18.22-.27.45-.54.67-.82.3-.32.59-.64.87-.99 7.79-8.93 16.61-18.02 24.5-25.86 2.94-2.94 5.76-5.69 8.36-8.16.74-.72 1.48-1.41 2.18-2.1 2.69-2.57 5.04-4.77 7-6.58l.05-.05c.94-.89 1.76-1.66 2.47-2.3.07-.07.12-.12.2-.17.87-.82 1.56-1.43 2.03-1.88.52-.47.79-.72.82-.74.25-.2.27-.57.07-.79zm-12.58 10.85h-.02c-.77.74-1.53 1.46-2.32 2.25-3.04 2.89-6.38 6.16-9.91 9.67-7.71 7.69-16.22 16.52-23.76 25.19-.3.32-.57.62-.84.94-.22.27-.47.57-.72.84-1.78 2.08-3.49 4.13-5.12 6.16-3.46 4.3-7.61 9.96-11.32 15.18 4.28-6.9 9.57-15.16 14.78-22.55.22-.32.44-.62.67-.91.25-.35.47-.67.72-1.01 3.44-4.75 6.8-9.05 9.79-12.26 3.46-3.71 7.76-7.69 12.29-11.57 4.48-3.86 9.15-7.61 13.38-10.9.84-.64 1.68-1.29 2.5-1.93h.02c1.48-1.11 2.87-2.18 4.15-3.14-1.31 1.24-2.72 2.57-4.28 4.05z"/>
  </g>
  <path fill="#ffc063" d="M160.29 391.97l-3.47 47.45-117.77-77.85-2.72-51.35 7.17 4.4.23-.47 116.56 77.82z"/>
  <path d="M294.43 416.48l-122.97 4.88-14.64 18.06s-23.43-37.09-38.78-25.13l5.18 9.57s-10.36-16.74-18.54-6.38l5.18 8.57s-6.98-8.37-13.75-2.39c0 0 50.03 49.03 56.2 50.82 6.18 1.79 16.14-2.39 30.49-9.57 14.35-7.18 20.33-8.57 35.88-6.58s98.86 32.69 98.86 32.69l-22.92-75.34-.2.8z" fill="#ff9191"/>
  <path d="M146.35 453.17c-.36 0-.71-.16-.94-.47l-28.3-37.72a1.17 1.17 0 01-.02-1.38c.19-.27 4.83-6.57 15.93-.29 9.86 5.57 22.71 22.66 24.55 25.14l9.99 3.94c.6.24.9.92.66 1.52s-.92.89-1.52.66l-10.3-4.06c-.21-.08-.39-.22-.52-.4-.14-.19-14.03-19.12-24.01-24.76-7.21-4.08-10.95-2.1-12.29-.98l27.71 36.92c.39.52.28 1.25-.23 1.64-.21.16-.46.23-.7.23z" fill="#302945"/>
  <path d="M136.63 459.75c-.35 0-.7-.16-.93-.45l-31.94-41.11c-.29-.37-.33-.87-.1-1.28 1.08-1.96 4.41-5.19 9.31-3.37 5.43 2.02 13.57 10.84 13.91 11.22.44.48.4 1.22-.07 1.65-.47.44-1.22.41-1.65-.07-.08-.09-8.09-8.78-13-10.61-3.21-1.19-5.21.66-6.02 1.69l31.42 40.44c.4.51.3 1.25-.21 1.64-.21.17-.47.25-.72.25zm20.59-20.42c-.18 0-.36-.04-.54-.13-.57-.3-.8-1-.5-1.58 1.72-3.33 5.01-5.97 9.78-7.86 5.7-2.26 11.93-3.02 18.01-2.21.64.09 1.09.67 1 1.32-.09.64-.68 1.08-1.32 1-5.68-.76-11.5-.04-16.83 2.07-4.23 1.68-7.11 3.95-8.56 6.76-.21.4-.62.63-1.04.63z" fill="#302945"/>
  <path d="M317.14 171.73c28.5-12.41 62.64-12.03 90.13 2.49 27.48 14.53 47.31 43.35 49.44 74.36.81 11.72-.78 23.49-3.08 35.02-2.59 12.98-6.27 26.12-14.15 36.76-5.38.3-11.98-.28-16.68-2.92-13.34-7.47-26.52-15.41-38.08-25.42-11.72-10.16-21.56-22.27-31.33-34.31-9.18-11.32-18.42-22.73-25.24-35.6-6.82-12.88-11.15-27.47-9.77-41.97l-1.24-8.4z" fill="#977bff"/>
  <path d="M238.99 260.16c1.78 9.52.35 19.75-3.12 28.41-.77 1.98-1.66 3.86-2.65 5.64-.2.35-.4.69-.59 1.01-.54.82-1.16 1.61-1.83 2.35-3.73 4.18-9.49 7.44-15.11 10.16-.87.42-1.73.82-2.57 1.21-3.66 1.71-7.12 3.21-9.72 4.6 1.21-3.34 2.18-6.85 2.92-10.46.2-.96.4-1.93.54-2.92.15-.87.3-1.73.37-2.6.15-.77.25-1.56.3-2.35.25-2.05.4-4.13.45-6.21.22-5.81-.15-11.67-1.16-17.36-1.04-5.83-2.79-11.67-5.96-15.72-5.79-7.42-14.56-7.39-22.37-8.8-13.52-2.42-26.97-11-34.86-26.31-7.94-15.33-9-37.83-.49-52.54 4.75-8.18 11.77-13.2 17.5-20.15 5.37-6.48 9.59-15.4 11.15-24.85.91-5.69.89-11.52-.47-17.13-.02-.05-.02-.12-.05-.17-1.56-6.4-4.67-11.87-7.96-16.91-6.63-10.21-14.17-19.36-20.1-30.34a98.523 98.523 0 01-5.27-11.42c4.82-2.92 9.77-5.64 14.83-8.16 2.5 1.76 5.19 3.02 7.89 3.91 21.34 7.07 44.55-4.87 65.37 4.6 2.13.96 4.18 2.15 6.16 3.59 9.72 7 17.53 19.31 20.59 33.53.94 4.15 1.43 8.48 1.46 12.88.15 19.01-8.01 36.34-18.77 48.61a74.133 74.133 0 01-4.5 4.67c-11.47 10.88-24.72 17.33-37.75 24.2-1.66.87-3.29 1.76-4.92 2.65-4.7 2.57-9.42 5.39-13.13 10.06-3.73 4.7-6.3 11.67-5.49 18.49.94 7.79 5.96 13.57 11.35 16.12 5.39 2.6 11.22 2.6 16.94 3.12 8.55.77 17.23 2.82 24.82 8.31 7.61 5.51 14.07 14.81 16.19 26.28z" fill="#fff" opacity=".21"/>
  <path fill="#ff9191" d="M268.92 208l32.69 43.45 43.84-41.86-54.21-68.96L268.92 208z"/>
  <path d="M298.42 138.51c0-30.53-26.68-55.28-59.59-55.28s-59.59 24.75-59.59 55.28c0 13.07 3.56 24.58 11.73 34.04l1.05.96s47.43 65.41 61.04 61.2c13.61-4.21 41.65-31.37 40.83-50.49-.18-4.28-1.91-10.09-4.46-16.52 5.7-8.47 9-18.48 9-29.2z" fill="#ff9191"/>
  <path d="M165.28 113.13s59.39-74.14 93.67-69.36c34.28 4.78 70.55 53.81 70.55 69.36s-10.76 61.79-10.76 61.79l-39.96-21.72-8.87 11.56s-47.63-14.95-44.84-40.06c0 0-37.07 32.29-59.79-11.56z" fill="#977bff"/>
  <path d="M263.33 145.05c-.21-6.98 2.71-14.23 8.4-18.29 5.69-4.06 14.16-4.25 19.44.32 3.98 3.43 5.69 8.82 6.4 14.02 1.16 8.44.14 17.17-2.92 25.12-.82 2.12-1.83 4.25-3.58 5.69-5.77 4.75-15.77-.27-19.84-5.31-4.42-5.46-7.7-14.7-7.91-21.56z" fill="#ff9191"/>
  <path d="M212.59 184.78c-1.1 0-2.19-.3-3.14-1-.52-.39-.63-1.12-.24-1.64.39-.52 1.12-.63 1.64-.24 1.36 1.01 3.46.5 4.7-.58 1.23-1.06 2.11-2.72 2.77-5.22.64-2.4.97-4.88.99-7.36 0-.65.6-1.17 1.18-1.16.65 0 1.17.53 1.16 1.18-.02 2.68-.38 5.36-1.07 7.95-.5 1.87-1.41 4.57-3.5 6.39-1.16 1-2.82 1.69-4.49 1.69zm9.57 26.92c-.31 0-.62-.12-.85-.37a1.18 1.18 0 01.05-1.66c2.73-2.56 4.34-6.71 4.77-12.34.05-.65.63-1.14 1.26-1.08.64.05 1.13.61 1.08 1.26-.48 6.23-2.33 10.9-5.5 13.87-.23.21-.51.32-.8.32z" fill="#302945"/>
  <path d="M197.44 162.73c-.63 0-1.15-.5-1.17-1.14a11.46 11.46 0 013.26-8.28c2.13-2.16 5.08-3.4 8.11-3.4h.11c.65 0 1.17.54 1.16 1.18 0 .64-.53 1.16-1.17 1.16h-.09c-2.38 0-4.78 1-6.44 2.7-1.69 1.71-2.65 4.17-2.59 6.57.02.65-.49 1.18-1.14 1.2h-.03z" fill="#977bff"/>
  <g fill="#302945">
    <path d="M278.71 161.33c-.49 0-.95-.31-1.11-.81-1-3.07-1.61-6.26-1.8-9.48-.21-3.55.16-6.48 1.15-8.95 1.29-3.22 3.67-5.63 6.52-6.62.61-.22 1.28.11 1.49.72.21.61-.11 1.28-.72 1.49-2.18.76-4.09 2.73-5.11 5.28-.86 2.14-1.18 4.73-.99 7.93.18 3.02.75 6.01 1.69 8.89a1.173 1.173 0 01-1.11 1.54z"/>
    <path d="M289.03 153.58c-.38 0-.76-.19-.99-.54a7.889 7.889 0 00-4.71-3.35 7.822 7.822 0 00-5.72.82c-.56.32-1.28.13-1.6-.43-.32-.56-.13-1.28.43-1.6 2.23-1.28 4.95-1.66 7.44-1.06 2.5.61 4.73 2.19 6.13 4.35a1.177 1.177 0 01-.98 1.81z"/>
  </g>
  <path d="M205.54 185.68s-15.94 23.52-14.75 24.71 23.12-11.96 23.12-11.96l-8.37-12.76z" fill="#ff9191"/>
  <path d="M464.86 497.45h-88.5c-.64-4.5-82.31-9.62-83.05-15.2-2.47-18.22-5.51-41.61-8.23-65.39-.05-.47-.1-.96-.17-1.43-4.8-42.1-8.55-85.12-6.4-102.58 4.77-38.87 13.75-58.59 13.75-58.59l-11.35-20.94 4.08-3.98 34.04-33.25 8.95-8.73 3.73-3.66 21.53 23.91s68.76 38.27 84.31 100.45c.89 3.54 1.76 7.32 2.62 11.35 10.98 50.96 20.69 138.85 24.7 178.06z" fill="#302945"/>
  <path d="M264.53 288.11l-3 13.77-.49 2.29-10.94 50.35-.49 2.3-1.85 8.48-.66 3s.02 0 0 .02l-1.71 7.89h-45.43l-34.68-86.51 99.25-1.59z" fill="#fff"/>
  <path d="M261.53 301.88l-.49 2.29c-3.26-.07-6.53.59-9.53 1.92-2.95 1.31-6.25 4.05-5.97 7.47.05.56.21 1.19.37 1.85.35 1.48.77 3.18-.05 4.8-.52 1.03-1.41 1.69-2.27 2.3l-1.45.98c-3.14 2.13-6.37 4.33-7.87 7.59-2.6 5.64 1.05 12.44 4.96 16.53 2.46 2.58 6.23 5.71 10.87 6.91l-.49 2.3c-5.22-1.29-9.39-4.75-12.08-7.59-4.61-4.85-8.45-12.41-5.39-19.13 1.78-3.84 5.29-6.23 8.69-8.55l1.43-.96c.66-.44 1.24-.89 1.52-1.45.42-.82.16-1.92-.14-3.16-.19-.73-.37-1.45-.44-2.22-.4-4.61 3.7-8.17 7.33-9.79 3.47-1.55 7.24-2.25 11.01-2.08zM220 326.41c-1.16-2.67-3.07-4.87-5.32-6.45-3.36-2.35-7.54-3.26-11.3-2.13-1.06.3-2.35-.99-2.77-2.37-.2-.69-.3-1.46-.42-2.23-.17-1.19-.35-2.42-.91-3.61-1.85-4.01-7.02-5.22-10.95-4.08-2.97.89-5.41 2.72-7.61 4.72-.69.59-1.36 1.24-2 1.85-.35.27-1.06.94-.82 1.95.17.64.74 1.09 1.41 1.04.62-.05 1.31-.49 1.43-1.21l-.2-.32c.59-.54 1.19-1.11 1.83-1.68 1.95-1.73 4.1-3.36 6.6-4.1 2.92-.84 6.9-.02 8.21 2.82.4.87.54 1.88.69 2.94.12.84.27 1.73.52 2.6.74 2.47 3.12 4.67 5.64 3.91 3.07-.91 6.6-.07 9.42 1.95 1.88 1.31 3.46 3.16 4.4 5.34 2.03 4.6 1.63 10.48-.96 15.95-.2.37-.37.72-.57 1.09-2.89 5.36-7.52 9.74-12.09 13.67l1.56 1.76c4.72-4.08 9.52-8.6 12.58-14.31.17-.32.35-.64.49-.96 3.02-6.13 3.46-12.83 1.14-18.12zm-40.55-12.7l-1.04-.15c.05-.37.3-.77.77-.79h.05c.17 0 .35.05.49.15l-.27.79zm68.31 51.59l-.66 3c-4.05-5.71-10.16-9.93-17.05-11.48-1.24-.26-2.83-.54-4.29-.19-2.74.66-4.52 3.47-5.06 5.92-.66 2.93-.14 6.04.44 8.97l-2.3.47c-.63-3.18-1.19-6.58-.44-9.93.87-3.89 3.54-6.93 6.81-7.7 1.92-.47 3.86-.14 5.34.19 6.74 1.5 12.86 5.41 17.19 10.75zm-24.31-53.21c-3.43 0-7.06-1.08-10.39-3.18-4.58-2.88-8.02-7.11-11.16-11.2l1.86-1.42c3.01 3.92 6.3 7.97 10.55 10.65 4.55 2.87 9.67 3.6 13.7 1.97 4.83-1.95 7.79-6.9 10.63-12.23l2.07 1.1c-3.05 5.73-6.25 11.06-11.82 13.3-1.69.68-3.53 1.02-5.44 1.02z" fill="#302945"/>
  <path d="M376.67 497.45H265.12c-.32-.52-.64-1.04-.96-1.53-6.38-10.06-13.28-20.72-19.85-30.48-2.5-3.66-4.92-7.19-7.27-10.53-3.56-5.07-6.95-9.67-9.96-13.52-3.88-4.94-8.55-9.82-13.67-14.56-2.47-2.32-5.04-4.6-7.66-6.82-6.45-5.51-13.25-10.83-19.8-15.87-.49-.35-.94-.72-1.41-1.06-.32-.25-.62-.47-.91-.72-.59-.42-1.16-.84-1.71-1.29-.3-.22-.62-.47-.91-.72-1.16-.89-2.35-1.76-3.49-2.65-.32-.25-.62-.49-.94-.72-4.48-3.44-8.7-6.72-12.41-9.82-.37-.3-.72-.62-1.06-.89-5.09-4.33-9.17-8.26-11.64-11.74-.54-.79-1.01-1.53-1.38-2.27a.798.798 0 01-.12-.22c-5.93-11.87-2.79-17.13-.99-18.94.54-.57.99-.79.99-.79-.17-.35-.35-.69-.49-1.01-6.82-13.94-1.06-18.67 1.66-20.03.3-.15.57-.27.77-.35.3-.1.47-.15.47-.15-3.86-10.58 2.74-14.59 5.46-15.75.05 0 .07-.02.1-.02a7.47 7.47 0 011.01-.37s-2.35-4.87-2.67-9.57c-.27-3.83.79-7.57 5.66-8.36.35-.05.74-.02 1.16.05 1.61.35 3.83 1.66 6.53 3.66 3.16 2.4 6.97 5.81 11.13 9.86.54.52 1.09 1.06 1.66 1.63 6.95 6.87 14.71 15.28 22.05 23.54l1.14 1.29c.07-.15.12-.27.22-.42 2-4.18 4.65-9.3 7.66-14.29.4-.69.82-1.38 1.24-2.05 1.8-2.87 3.71-5.66 5.66-8.16.59-.74 1.16-1.46 1.76-2.13 4.48-5.17 9.15-8.53 13.45-7.66.1 0 .2.02.3.05l-.72 4.35v.02c-.89 5.36-2.37 14.98-3.51 25.04-.2 1.61-.37 3.24-.54 4.85-.54 5.32-.96 10.58-1.09 15.23-.05.99-.07 1.95-.07 2.87v.57c0 .35 0 .67.02.99-.02.25 0 .49 0 .74v.3c.1 4.18.57 7.47 1.51 9.22.49.94 1.11 1.93 1.78 2.97l7.84 7 43.83 39.21 1.56 1.38 11.72 10.46 78.5 70.19z" fill="#ff9191"/>
  <path d="M169.07 333.14c-.4 0-.79-.21-1.01-.58 0 0-1.99-3.39-10.17-17.34-3.04-5.18-3.89-9.71-2.53-13.45 1.65-4.54 5.95-6.12 6.13-6.18.6-.22 1.27.1 1.49.7.22.61-.1 1.28-.7 1.5-.04.01-3.48 1.31-4.74 4.81-1.09 3.05-.3 6.9 2.36 11.44 8.17 13.95 10.16 17.34 10.16 17.34.33.56.14 1.27-.42 1.6-.19.11-.39.16-.59.16z" fill="#302945"/>
  <path d="M161.5 349.88c-.4 0-.8-.21-1.01-.58-.04-.06-3.67-6.34-9.01-17.21-1.82-3.71-2.2-7.18-1.11-10.32 1.65-4.75 6.05-6.91 6.24-7 .58-.28 1.28-.04 1.56.55.28.58.04 1.28-.54 1.56-.04.02-3.74 1.86-5.05 5.68-.86 2.51-.52 5.37 1.01 8.5 5.3 10.79 8.89 17.01 8.93 17.07.32.56.13 1.28-.42 1.6-.18.11-.39.16-.59.16z" fill="#302945"/>
  <path d="M156.71 367.42c-.43 0-.84-.24-1.05-.65-.06-.12-6.23-12.47-10.18-20.96-3.52-7.57 1.92-13.04 5.29-14.88a1.176 1.176 0 011.13 2.06c-.32.18-7.75 4.38-4.29 11.83 3.93 8.46 10.09 20.77 10.15 20.9.29.58.05 1.28-.52 1.57-.17.08-.35.12-.52.12z" fill="#302945"/>
  <path d="M265.12 497.45h-2.74c-3.98-6.38-7.71-12.49-10.61-17.5-2.6-4.52-6.21-9.82-10.36-15.43-12.19-16.52-28.95-35.6-37.38-44.45-1.41-1.48-2.6-2.69-3.49-3.54-2.4-2.32-7.81-6.23-14.09-10.78-.4-.3-.79-.57-1.21-.87-.44-.35-.91-.67-1.38-1.01-.32-.25-.64-.47-.96-.69-.54-.42-1.11-.82-1.66-1.21-.32-.22-.62-.45-.91-.69-1.16-.82-2.32-1.68-3.49-2.55-.32-.25-.62-.47-.94-.69-4.05-3.04-8.16-6.21-11.94-9.37-.35-.3-.72-.59-1.06-.89-6.11-5.19-11.27-10.33-13.7-14.69-.12-.17-.2-.35-.3-.52-.27-.52-.52-1.04-.77-1.53-5.09-10.93-1.34-16.96.35-18.91.37-.45.67-.67.72-.72.07-.05.15-.1.25-.12.42-.25.99-.17 1.33.2l.07.07c.15.2.25.4.25.62.05.37-.07.74-.4 1.01-.07.05-.54.47-1.09 1.29-.77 1.19-1.71 3.26-1.71 6.3 0 2.74.77 6.28 3.07 10.71.37.72.84 1.48 1.41 2.25.59.89 1.31 1.8 2.13 2.74 2.32 2.7 5.37 5.61 8.78 8.55.35.32.69.62 1.04.91 4.01 3.36 8.43 6.82 12.86 10.11.32.25.64.47.96.69 1.19.89 2.37 1.78 3.54 2.62.3.22.62.47.94.67.62.47 1.24.91 1.83 1.36.32.22.64.45.94.67.49.37.96.72 1.43 1.06.35.22.67.47 1.01.72 6.33 4.6 11.82 8.55 14.34 10.98 1.19 1.14 2.87 2.89 4.94 5.12 1.83 1.95 3.96 4.28 6.28 6.87 6.97 7.79 15.72 18.02 23.64 28.09 2.89 3.68 5.66 7.32 8.16 10.83 3.41 4.72 6.38 9.17 8.6 13.05 2.82 4.92 6.45 10.9 10.36 17.13.32.49.64 1.01.96 1.53zm-2.18-199.89h-95.37c-.65 0-1.17-.52-1.17-1.17s.52-1.17 1.17-1.17h95.37c.65 0 1.17.52 1.17 1.17s-.52 1.17-1.17 1.17z" fill="#302945"/>
  <path d="M392.37 337.27l15.48 160.18h-1.76l-15.48-160.01c-.05-.49.32-.91.79-.96.47-.05.91.3.96.79z" fill="#f8bdff"/>
</svg>
